<?xml version="1.0" encoding="UTF-8"?>
<svg version="1.1" xmlns="http://www.w3.org/2000/svg" width="512" height="512">
<path d="M0 0 C1.01790619 0.00215515 2.03581238 0.0043103 3.08456421 0.00653076 C17.69363523 0.05620146 32.02575853 0.30709809 46.375 3.3125 C47.34985352 3.51117676 48.32470703 3.70985352 49.32910156 3.91455078 C97.7109774 14.03517194 141.69928269 35.9516877 177.375 70.3125 C178.3640332 71.26068604 178.3640332 71.26068604 179.37304688 72.22802734 C188.86130305 81.37247479 197.6012044 90.66984009 205.375 101.3125 C206.23306152 102.46355017 207.09113451 103.61459177 207.94921875 104.765625 C213.98736829 112.95680614 219.34595521 121.47054105 224.375 130.3125 C224.73948242 130.94430176 225.10396484 131.57610352 225.47949219 132.22705078 C247.08534998 169.97532572 256.85198095 212.74189997 256.6875 255.9375 C256.68534485 256.95540619 256.6831897 257.97331238 256.68096924 259.02206421 C256.63129854 273.63113523 256.38040191 287.96325853 253.375 302.3125 C253.07698486 303.77478027 253.07698486 303.77478027 252.77294922 305.26660156 C242.65232806 353.6484774 220.7358123 397.63678269 186.375 433.3125 C185.74287598 433.97185547 185.11075195 434.63121094 184.45947266 435.31054688 C175.31502521 444.79880305 166.01765991 453.5387044 155.375 461.3125 C154.22394983 462.17056152 153.07290823 463.02863451 151.921875 463.88671875 C143.73224019 469.92427396 135.22961724 475.30707302 126.375 480.3125 C125.66778809 480.7146875 124.96057617 481.116875 124.23193359 481.53125 C101.09654164 494.5566741 75.92537591 503.30551461 49.9375 508.625 C49.21860596 508.77235596 48.49971191 508.91971191 47.7590332 509.0715332 C33.08339502 511.86090125 18.55831162 512.66142619 3.64770508 512.62817383 C0.70811513 512.6250221 -2.2304558 512.64854926 -5.16992188 512.67382812 C-18.54306192 512.71848737 -31.43916711 511.51301542 -44.625 509.3125 C-46.33055054 509.03031616 -46.33055054 509.03031616 -48.07055664 508.74243164 C-91.33802759 500.97044532 -132.38793216 480.98345309 -165.625 452.3125 C-166.37007813 451.67828125 -167.11515625 451.0440625 -167.8828125 450.390625 C-181.38779833 438.57948485 -194.05918743 425.82889772 -204.625 411.3125 C-205.48149066 410.16255169 -206.33826433 409.01281411 -207.1953125 407.86328125 C-213.23534209 399.67315742 -218.61867614 391.16870382 -223.625 382.3125 C-224.0271875 381.60528809 -224.429375 380.89807617 -224.84375 380.16943359 C-237.8691741 357.03404164 -246.61801461 331.86287591 -251.9375 305.875 C-252.08485596 305.15610596 -252.23221191 304.43721191 -252.3840332 303.6965332 C-255.35789088 288.05024391 -255.99800362 272.57681954 -255.9375 256.6875 C-255.93534485 255.66959381 -255.9331897 254.65168762 -255.93096924 253.60293579 C-255.88129854 238.99386477 -255.63040191 224.66174147 -252.625 210.3125 C-252.42632324 209.33764648 -252.22764648 208.36279297 -252.02294922 207.35839844 C-241.90232806 158.9765226 -219.9858123 114.98821731 -185.625 79.3125 C-184.99287598 78.65314453 -184.36075195 77.99378906 -183.70947266 77.31445312 C-174.56502521 67.82619695 -165.26765991 59.0862956 -154.625 51.3125 C-153.47394983 50.45443848 -152.32290823 49.59636549 -151.171875 48.73828125 C-142.98224019 42.70072604 -134.47961724 37.31792698 -125.625 32.3125 C-124.91778809 31.9103125 -124.21057617 31.508125 -123.48193359 31.09375 C-100.34654164 18.0683259 -75.17537591 9.31948539 -49.1875 4 C-48.46860596 3.85264404 -47.74971191 3.70528809 -47.0090332 3.5534668 C-31.36274391 0.57960912 -15.88931954 -0.06050362 0 0 Z " fill="#DCB9CF" transform="translate(255.625,-0.3125)"/>
<path d="M0 0 C1.32746948 0.17813223 2.65564481 0.35106045 3.984375 0.51953125 C18.49780262 2.48080525 33.11852046 6.54324495 46.67285156 12.09472656 C52.83940249 14.49354851 57.81336909 12.14371341 63.5625 9.8125 C73.84888577 5.85357516 84.19998502 3.15272617 95 1 C95.81065918 0.83483887 96.62131836 0.66967773 97.45654297 0.49951172 C120.02719017 -3.91420231 152.81039228 -6.59480386 174 4 C174 11.26 174 18.52 174 26 C176.3821875 25.7525 176.3821875 25.7525 178.8125 25.5 C184.61063709 25.01334581 190.37296521 24.88811919 196.1875 24.875 C197.46234253 24.86823242 197.46234253 24.86823242 198.76293945 24.86132812 C204.87622192 24.87622192 204.87622192 24.87622192 206 26 C206.10100494 27.93166677 206.1307729 29.86707289 206.13371277 31.80137634 C206.13797775 33.0619838 206.14224274 34.32259125 206.14663696 35.62139893 C206.1462874 37.0313721 206.14582584 38.44134525 206.14526367 39.85131836 C206.14825355 41.32603542 206.15165568 42.80075169 206.15544128 44.27546692 C206.16430294 48.29194698 206.1666203 52.30840577 206.16725707 56.32489467 C206.16820437 59.67249579 206.1718806 63.0200919 206.17542917 66.3676911 C206.18358195 74.26262671 206.18601265 82.1575509 206.18530273 90.05249023 C206.18470171 98.20894552 206.1952565 106.36533472 206.2110464 114.52177328 C206.22410188 121.51370206 206.22948747 128.50560919 206.22884732 135.49755007 C206.22859175 139.67829588 206.23147552 143.858983 206.24202538 148.03971672 C206.25167297 151.97046873 206.25180866 155.90110554 206.24450874 159.8318615 C206.24345872 161.27748787 206.24585035 162.72312128 206.2518692 164.1687355 C206.25953307 166.13635602 206.25377053 168.10401542 206.24723816 170.07164001 C206.24778293 171.17464919 206.24832769 172.27765837 206.24888897 173.41409206 C206 176 206 176 204 178 C201.44923343 178.0089396 199.03290826 177.90400778 196.5 177.6875 C195.8296875 177.63916016 195.159375 177.59082031 194.46875 177.54101562 C191.58512476 177.32528987 188.71118048 177.08650579 185.84033203 176.73730469 C178.29235971 175.84365551 170.75931277 175.84859492 163.17089844 175.86962891 C160.90032114 175.87494076 158.62994593 175.86968138 156.359375 175.86328125 C146.53732708 175.85928757 136.79415339 176.26889418 127 177 C127.05164307 178.05928711 127.10328613 179.11857422 127.15649414 180.20996094 C127.48904795 188.15586328 127.44140681 194.69420304 122 201 C117.7848996 204.7619771 113.60473903 206.11910804 108.02351379 206.15390015 C106.99601013 206.16250061 105.96850647 206.17110107 104.90986633 206.17996216 C103.21968636 206.18635208 103.21968636 206.18635208 101.49536133 206.19287109 C100.30808441 206.20104858 99.1208075 206.20922607 97.89755249 206.21765137 C93.95905906 206.24251213 90.02057318 206.25917791 86.08203125 206.2734375 C84.72418397 206.27879893 83.36633676 206.28417644 82.00848961 206.28956985 C76.35782828 206.31119575 70.70716977 206.32993023 65.05647755 206.34119225 C56.96987233 206.35741719 48.88374866 206.39056206 40.79732496 206.44759309 C35.10546682 206.48636088 29.41373709 206.50583309 23.72175044 206.51111281 C20.3253622 206.51475763 16.92948794 206.52668415 13.53324318 206.55921555 C9.73899408 206.59083043 5.94595755 206.59090824 2.15161133 206.58349609 C1.03494583 206.59990143 -0.08171967 206.61630676 -1.23222351 206.63320923 C-8.12766765 206.57814061 -12.65861447 205.47515173 -18 201 C-22.74852683 196.11297447 -23.4071774 190.53003709 -23.3125 183.9375 C-23.21601204 181.62466689 -23.11308042 179.31208126 -23 177 C-33.70084881 176.20391768 -44.35081887 175.8135838 -55.08129883 175.81469727 C-57.43263722 175.81250453 -59.78350897 175.79422808 -62.13476562 175.77539062 C-71.32839985 175.74269864 -80.23914104 176.31918726 -89.34790039 177.5690918 C-98.09777639 178.60148241 -98.09777639 178.60148241 -102 176 C-102.3719368 173.41409206 -102.3719368 173.41409206 -102.36749268 170.07164001 C-102.37306183 168.80821274 -102.37863098 167.54478546 -102.3843689 166.24307251 C-102.37534561 164.83514219 -102.3660278 163.42721373 -102.35644531 162.01928711 C-102.3572358 160.54279967 -102.35933187 159.06631243 -102.36264038 157.58982849 C-102.3677854 153.57338021 -102.35421778 149.55718704 -102.33711338 145.54077983 C-102.3221094 141.345191 -102.32325219 137.14960592 -102.32244873 132.95399475 C-102.31875328 125.90833157 -102.30377117 118.86276565 -102.28125 111.81713867 C-102.25236467 102.76182045 -102.24202634 93.70658056 -102.2375679 84.65122128 C-102.23359332 76.8804507 -102.22109093 69.10969728 -102.20722103 61.33893895 C-102.20311535 58.83395568 -102.20019314 56.32897303 -102.19742584 53.82398796 C-102.19254489 49.89488062 -102.18236196 45.96582117 -102.16798782 42.03673744 C-102.16345202 40.59069628 -102.16062315 39.14464867 -102.15958023 37.69860077 C-102.15784381 35.73284971 -102.14934602 33.767108 -102.14044189 31.80137634 C-102.13746723 30.69874419 -102.13449257 29.59611204 -102.13142776 28.4600668 C-102 26 -102 26 -101 25 C-99.21708201 24.90026949 -97.43023523 24.86919375 -95.64453125 24.8671875 C-94.54689453 24.86589844 -93.44925781 24.86460937 -92.31835938 24.86328125 C-91.16142578 24.86714844 -90.00449219 24.87101562 -88.8125 24.875 C-87.67490234 24.87113281 -86.53730469 24.86726563 -85.36523438 24.86328125 C-83.70911133 24.86521484 -83.70911133 24.86521484 -82.01953125 24.8671875 C-81.00995361 24.86831543 -80.00037598 24.86944336 -78.96020508 24.87060547 C-75.90321047 25.0042308 -73.00509023 25.43684268 -70 26 C-70.01047363 25.34402832 -70.02094727 24.68805664 -70.03173828 24.01220703 C-70.07322503 21.04984342 -70.09930262 18.08754084 -70.125 15.125 C-70.14175781 14.09246094 -70.15851563 13.05992187 -70.17578125 11.99609375 C-70.18222656 11.00996094 -70.18867188 10.02382812 -70.1953125 9.0078125 C-70.20578613 8.09660645 -70.21625977 7.18540039 -70.22705078 6.24658203 C-70 4 -70 4 -68 2 C-65.70822213 1.39446072 -63.38958082 0.88874105 -61.0625 0.4375 C-59.81597656 0.18871094 -58.56945312 -0.06007812 -57.28515625 -0.31640625 C-38.66179349 -3.51321775 -18.57303192 -3.26902019 0 0 Z " fill="#030202" transform="translate(204,154)"/>
<path d="M0 0 C0 45.87 0 91.74 0 139 C-13 138 -13 138 -17.14453125 137.44921875 C-20.22235574 137.09060698 -23.11160953 136.9285714 -26.19921875 136.89453125 C-27.09833984 136.87970703 -27.99746094 136.86488281 -28.92382812 136.84960938 C-30.77783498 136.82471458 -32.63220877 136.81975178 -34.48632812 136.83398438 C-41.35107539 136.67089103 -41.35107539 136.67089103 -44.76953125 133.13671875 C-45.50558594 132.10160156 -46.24164063 131.06648437 -47 130 C-51.1424811 127.49345176 -54.28255659 126.61928587 -59.09716797 126.56762695 C-60.2943042 126.54768677 -61.49144043 126.52774658 -62.72485352 126.50720215 C-63.96807373 126.50095825 -65.21129395 126.49471436 -66.4921875 126.48828125 C-67.645979 126.47164429 -68.79977051 126.45500732 -69.98852539 126.43786621 C-74.28383295 126.38018741 -78.5794506 126.34784443 -82.875 126.3125 C-92.48625 126.209375 -102.0975 126.10625 -112 126 C-112 88.38 -112 50.76 -112 12 C-75.49099741 -1.45068517 -38.52261932 -9.63065483 0 0 Z " fill="#FAE6B4" transform="translate(371,163)"/>
<path d="M0 0 C0.90049072 0.21543457 1.80098145 0.43086914 2.72875977 0.65283203 C12.44116661 3.14663963 21.26081464 6.73095803 30.8125 10.25 C30.8125 47.87 30.8125 85.49 30.8125 124.25 C1.8125 124.4375 1.8125 124.4375 -7.30078125 124.45776367 C-9.70054304 124.48422234 -12.10028574 124.51250232 -14.5 124.54296875 C-15.73298828 124.53898071 -16.96597656 124.53499268 -18.23632812 124.53088379 C-25.44003103 124.64944231 -30.73239905 125.26487923 -36.1875 130.25 C-36.74260254 131.00200684 -37.29770508 131.75401367 -37.86962891 132.52880859 C-39.1875 134.25 -39.1875 134.25 -41.52490234 134.76416016 C-42.88542725 134.77648682 -42.88542725 134.77648682 -44.2734375 134.7890625 C-45.28108154 134.81105713 -46.28872559 134.83305176 -47.3269043 134.85571289 C-48.39465088 134.86207764 -49.46239746 134.86844238 -50.5625 134.875 C-58.43462482 135.04762148 -65.95318322 135.37987358 -73.69921875 136.84765625 C-76.1875 137.25 -76.1875 137.25 -81.1875 137.25 C-81.1875 91.38 -81.1875 45.51 -81.1875 -1.75 C-54.70741208 -9.31573941 -26.42166365 -6.38840128 0 0 Z " fill="#FAE6B4" transform="translate(222.1875,164.75)"/>
<path d="M0 0 C1.02335449 -0.01134979 2.04670898 -0.02269958 3.10107422 -0.03439331 C4.77654831 -0.02999741 4.77654831 -0.02999741 6.48587036 -0.0255127 C8.2571933 -0.03821701 8.2571933 -0.03821701 10.06430054 -0.05117798 C13.30000259 -0.07056727 16.53535078 -0.07632505 19.77110052 -0.07443047 C22.47479576 -0.07431071 25.17843715 -0.08287717 27.88211739 -0.09120798 C34.26276695 -0.11043985 40.64328569 -0.11332698 47.0239563 -0.10656738 C53.59974441 -0.09992903 60.17497124 -0.12278238 66.75064552 -0.15988111 C72.40176142 -0.19060324 78.05269702 -0.20193539 83.70389473 -0.1980443 C87.0766828 -0.19597904 90.44903424 -0.20142013 93.82174301 -0.22593689 C97.58523883 -0.2480565 101.34737941 -0.23845766 105.11087036 -0.2208252 C106.78027176 -0.24072006 106.78027176 -0.24072006 108.48339844 -0.26101685 C116.91162639 -0.16920842 116.91162639 -0.16920842 120.6038208 2.68286133 C124.69744216 7.45924568 124.09910513 12.02037293 124.13088989 18.10534668 C124.13658997 18.9511026 124.14229004 19.79685852 124.14816284 20.66824341 C124.15759491 22.45520788 124.16413969 24.24218961 124.16799927 26.0291748 C124.17770567 28.75279264 124.20874587 31.47565575 124.24026489 34.19909668 C124.24679555 35.93867555 124.25204578 37.6782598 124.25588989 39.41784668 C124.26823669 40.22740814 124.2805835 41.0369696 124.29330444 41.87106323 C124.27418371 46.76064623 123.76853003 50.23079184 120.92776489 54.39440918 C116.10802102 58.57986753 110.36051401 57.82300766 104.33206177 57.79846191 C103.15918106 57.80532516 101.98630035 57.81218842 100.77787781 57.81925964 C96.90063373 57.8375622 93.0237929 57.83368535 89.14651489 57.82800293 C87.13356756 57.83047839 85.12063017 57.8348252 83.10768652 57.83935601 C76.78122934 57.85339241 70.45490722 57.85184693 64.12844849 57.8404541 C57.60665313 57.82896889 51.08526879 57.8430569 44.56352758 57.86985058 C38.95827006 57.89201483 33.3531415 57.89864351 27.74784327 57.89277416 C24.40250242 57.88940557 21.05763597 57.89352166 17.71229553 57.90902519 C13.98237372 57.92387633 10.25336107 57.91330027 6.52346802 57.89611816 C5.41786026 57.90578613 4.3122525 57.9154541 3.17314148 57.92541504 C-4.31120723 57.8530973 -4.31120723 57.8530973 -8.21611023 55.49952698 C-12.56400456 50.56837722 -12.37986923 45.5986951 -12.37301636 39.33190918 C-12.37730148 38.46300049 -12.38158661 37.5940918 -12.38600159 36.69885254 C-12.39172999 34.86658599 -12.39225615 33.03429671 -12.38790894 31.20202637 C-12.3847457 28.40377985 -12.40823758 25.60658789 -12.43356323 22.80847168 C-12.4358361 21.02461884 -12.43653978 19.24076317 -12.43551636 17.45690918 C-12.4447261 16.62344971 -12.45393585 15.78999023 -12.46342468 14.93127441 C-12.42635469 10.26351177 -12.13403877 7.1542608 -9.07223511 3.39440918 C-6.01632675 0.65079633 -4.08362627 0.01714349 0 0 Z " fill="#FCB101" transform="translate(200.07223510742188,295.6055908203125)"/>
<path d="M0 0 C25 1 25 1 26 2 C26.10805665 3.56846119 26.14683786 5.14174465 26.15821838 6.71388245 C26.1680072 7.73336975 26.17779602 8.75285706 26.18788147 9.80323792 C26.19651466 11.49500404 26.19651466 11.49500404 26.20532227 13.22094727 C26.21522186 14.40127533 26.22512146 15.58160339 26.23532104 16.79769897 C26.26157079 20.04339119 26.28340717 23.28907795 26.30332303 26.53481412 C26.32514552 29.92345952 26.35255243 33.31205952 26.37937927 36.70066833 C26.42935686 43.1215251 26.47427682 49.542407 26.51740164 55.96331304 C26.56673081 63.27157049 26.62166491 70.5797824 26.67708123 77.88799584 C26.79097901 92.92528814 26.89780098 107.9626233 27 123 C28.25971619 122.84594696 29.51943237 122.69189392 30.81732178 122.53317261 C31.52591213 122.44651777 32.23450249 122.35986294 32.96456528 122.2705822 C35.54399318 121.92768382 38.08592543 121.4378013 40.640625 120.9453125 C47.36793291 119.80433737 53.94280288 119.77489416 60.75 119.875 C61.9359375 119.88402344 63.121875 119.89304687 64.34375 119.90234375 C67.22925645 119.92561396 70.11465694 119.96147168 73 120 C73 125.94 73 131.88 73 138 C48.91 138 24.82 138 0 138 C0 92.46 0 46.92 0 0 Z " fill="#F84E1A" transform="translate(109,186)"/>
<path d="M0 0 C0 45.54 0 91.08 0 138 C-24.09 138 -48.18 138 -73 138 C-73 132.06 -73 126.12 -73 120 C-59.82581395 119.71475299 -47.15339378 119.54713398 -34.23046875 122.34375 C-30.89608611 123.13271847 -30.89608611 123.13271847 -27 123 C-26.99576806 122.37732018 -26.99153612 121.75464037 -26.98717594 121.11309147 C-26.88400589 105.98284622 -26.7753889 90.85265081 -26.66066074 75.72248936 C-26.60531202 68.40574831 -26.55182737 61.08900238 -26.50268555 53.7722168 C-26.45986385 47.39713924 -26.41359105 41.02209784 -26.36312145 34.64707607 C-26.3365042 31.26954111 -26.31165082 27.8920134 -26.29092598 24.51443672 C-26.2669606 20.74988903 -26.23689564 16.98543771 -26.20532227 13.22094727 C-26.1995668 12.09310318 -26.19381134 10.96525909 -26.18788147 9.80323792 C-26.17809265 8.78375061 -26.16830383 7.76426331 -26.15821838 6.71388245 C-26.15176583 5.82250863 -26.14531328 4.93113482 -26.1386652 4.01274967 C-26 2 -26 2 -25 1 C-22.88049238 0.75819702 -20.75329336 0.58292569 -18.625 0.4375 C-17.46226562 0.35371094 -16.29953125 0.26992187 -15.1015625 0.18359375 C-10.07237214 -0.04152239 -5.03422615 0 0 0 Z " fill="#F94E1A" transform="translate(403,186)"/>
<path d="M0 0 C1.06541016 -0.01836914 1.06541016 -0.01836914 2.15234375 -0.03710938 C3.97809087 -0.042306 5.80339133 0.06453099 7.625 0.1875 C8.285 0.8475 8.945 1.5075 9.625 2.1875 C9.25 4.8125 9.25 4.8125 8.625 7.1875 C7.94622803 7.22713867 7.26745605 7.26677734 6.56811523 7.30761719 C-11.04011365 8.38661488 -26.27879549 9.99242255 -42.01196289 18.45751953 C-48.49136889 21.94214424 -48.49136889 21.94214424 -52.375 22.1875 C-53.035 21.5275 -53.695 20.8675 -54.375 20.1875 C-54.19249394 17.51969077 -53.68148086 16.46618376 -51.6953125 14.66015625 C-36.00094184 4.5788968 -18.59702346 0.01744561 0 0 Z " fill="#060504" transform="translate(337.375,232.8125)"/>
<path d="M0 0 C17.97423897 0.13384138 40.24954506 3.90619957 54.31640625 15.85546875 C54.90228516 16.57669922 54.90228516 16.57669922 55.5 17.3125 C55.1875 19.5 55.1875 19.5 54.5 21.3125 C52.91015625 22.0390625 52.91015625 22.0390625 50.5 22.3125 C48.20773633 21.18574361 46.11048539 20.0104748 43.9375 18.6875 C30.7108905 11.11072232 15.62998068 8.53758896 0.5625 7.75 C-0.21673828 7.70681641 -0.99597656 7.66363281 -1.79882812 7.61914062 C-3.69907117 7.51421923 -5.59951669 7.4129755 -7.5 7.3125 C-8.125 4.9375 -8.125 4.9375 -8.5 2.3125 C-5.69466465 -0.49283535 -3.92911181 0.01259331 0 0 Z " fill="#060505" transform="translate(173.5,232.6875)"/>
<path d="M0 0 C16.96838076 0.07955564 42.05354255 3.83948897 54.6875 16.375 C55.47265625 18.4296875 55.47265625 18.4296875 55.6875 20.375 C55.3575 21.035 55.0275 21.695 54.6875 22.375 C49.58658431 21.85002097 45.7907618 19.99806261 41.375 17.5625 C25.99234491 9.56814037 9.76715037 8.48903791 -7.3125 7.375 C-7.9375 5 -7.9375 5 -8.3125 2.375 C-5.53951748 -0.39798252 -3.89058677 0.04252007 0 0 Z " fill="#080807" transform="translate(173.3125,206.625)"/>
<path d="M0 0 C0.66 0.66 1.32 1.32 2 2 C1.625 4.625 1.625 4.625 1 7 C0.32122803 7.03963867 -0.35754395 7.07927734 -1.05688477 7.12011719 C-18.61487298 8.19603623 -33.89283411 9.73864925 -49.54907227 18.27001953 C-53.38209322 20.3420564 -56.65779248 21.55172896 -61 22 C-61.33 20.35 -61.66 18.7 -62 17 C-45.9450511 3.42139284 -20.73272011 -2.19288386 0 0 Z " fill="#070606" transform="translate(345,207)"/>
<path d="M0 0 C-0.875 4.875 -0.875 4.875 -2 6 C-5.06462575 6.16240411 -8.12074699 6.27847924 -11.1875 6.375 C-26.9408383 7.04018132 -42.02070804 10.05586852 -55.27734375 19.0625 C-57.86339149 20.46987292 -60.13740695 20.35782413 -63 20 C-63.33 18.68 -63.66 17.36 -64 16 C-50.37717997 4.36384122 -17.47158454 -8.73579227 0 0 Z " fill="#040303" transform="translate(347,260)"/>
<path d="M0 0 C18.57792297 6.77176151 18.57792297 6.77176151 22.67578125 12.33984375 C22.36328125 14.52734375 22.36328125 14.52734375 21.67578125 16.33984375 C17.21941832 17.04348 14.82399948 16.00622713 11.17578125 13.65234375 C-2.28844562 5.08788065 -17.02247803 3.17831539 -32.59619141 2.76855469 C-33.85568604 2.72649902 -33.85568604 2.72649902 -35.140625 2.68359375 C-35.89802979 2.66490234 -36.65543457 2.64621094 -37.43579102 2.62695312 C-39.32421875 2.33984375 -39.32421875 2.33984375 -41.32421875 0.33984375 C-41.32421875 -0.98015625 -41.32421875 -2.30015625 -41.32421875 -3.66015625 C-30.6645889 -8.98997117 -10.50883483 -3.15384058 0 0 Z " fill="#040303" transform="translate(206.32421875,263.66015625)"/>
<path d="M0 0 C17.66596406 0.27009596 36.25939958 5.13944705 50.26123047 16.3828125 C49.76623047 18.8578125 49.76623047 18.8578125 49.26123047 21.3828125 C44.62802253 21.18136868 41.95720412 20.32738608 38.13623047 17.6953125 C23.12099453 8.31079004 4.47834491 7.19657349 -12.73876953 6.3828125 C-13.1209572 4.72666593 -13.45272055 3.05824226 -13.73876953 1.3828125 C-11.04882868 -1.30712835 -3.59440037 0.00939559 0 0 Z " fill="#040303" transform="translate(178.73876953125,181.6171875)"/>
<path d="M0 0 C1.01771484 0.00451172 2.03542969 0.00902344 3.08398438 0.01367188 C5.57688509 0.02537563 8.06966074 0.04177152 10.5625 0.0625 C10.94468767 1.71864657 11.27645102 3.38707024 11.5625 5.0625 C9.8662639 6.7587361 7.71645734 6.22984351 5.4465332 6.30151367 C-11.44767127 6.86671936 -29.38089379 9.56558165 -43.640625 19.234375 C-46.62049364 21.18211037 -47.96513289 21.47101378 -51.4375 21.0625 C-51.7675 19.4125 -52.0975 17.7625 -52.4375 16.0625 C-36.62706309 4.70240829 -19.35668513 -0.16371952 0 0 Z " fill="#040303" transform="translate(335.4375,181.9375)"/>
<path d="M0 0 C0.76171875 1.71484375 0.76171875 1.71484375 1 4 C-0.73046875 6.25390625 -0.73046875 6.25390625 -3.1875 8.5625 C-3.98542969 9.32691406 -4.78335938 10.09132813 -5.60546875 10.87890625 C-7.67165733 12.7091516 -9.76107778 14.38900539 -12 16 C-10.43416404 20.03721561 -7.55826135 22.47070582 -4.375 25.25 C-3.859375 25.70890625 -3.34375 26.1678125 -2.8125 26.640625 C-1.5465398 27.76592296 -0.27392058 28.88372177 1 30 C0.67 31.32 0.34 32.64 0 34 C-1.79296875 34.65136719 -1.79296875 34.65136719 -4 35 C-5.67578125 34.05957031 -5.67578125 34.05957031 -7.3125 32.578125 C-7.91320312 32.04703125 -8.51390625 31.5159375 -9.1328125 30.96875 C-10.05707031 30.11796875 -10.05707031 30.11796875 -11 29.25 C-12.22835476 28.15013423 -13.4575001 27.05115066 -14.6875 25.953125 C-15.25984375 25.43041016 -15.8321875 24.90769531 -16.421875 24.36914062 C-18.07326337 22.8720928 -18.07326337 22.8720928 -20.4375 21.421875 C-22 20 -22 20 -22.53515625 17.58984375 C-21.79650492 14.01520262 -20.21511428 12.88476768 -17.4375 10.5625 C-16.52484375 9.79164063 -15.6121875 9.02078125 -14.671875 8.2265625 C-13.79015625 7.49179687 -12.9084375 6.75703125 -12 6 C-10.98679688 5.05253906 -10.98679688 5.05253906 -9.953125 4.0859375 C-4.66771096 -0.84867472 -4.66771096 -0.84867472 0 0 Z " fill="#070502" transform="translate(231,307)"/>
<path d="M0 0 C4.30018508 0.6429632 6.40732456 3.24236057 9.41015625 6.23828125 C10.53496453 7.32966666 11.66122976 8.41955284 12.7890625 9.5078125 C13.31387207 10.02424316 13.83868164 10.54067383 14.37939453 11.07275391 C15.92134361 12.56778684 15.92134361 12.56778684 18.25 14 C19.84765625 15.42578125 19.84765625 15.42578125 20.51953125 17.73046875 C19.45800538 21.98891557 16.4409213 23.89076282 13.09765625 26.55078125 C12.4634375 27.07542969 11.82921875 27.60007812 11.17578125 28.140625 C9.41511319 29.58950809 7.63547615 31.01064646 5.84765625 32.42578125 C5.08453125 33.04839844 4.32140625 33.67101562 3.53515625 34.3125 C1.84765625 35.42578125 1.84765625 35.42578125 -0.40234375 35.11328125 C-0.97984375 34.88640625 -1.55734375 34.65953125 -2.15234375 34.42578125 C-2.48234375 33.10578125 -2.81234375 31.78578125 -3.15234375 30.42578125 C1.13765625 26.46578125 5.42765625 22.50578125 9.84765625 18.42578125 C7.39832106 13.52711088 4.20809993 11.11803248 0.0625 7.64453125 C-2.11567989 5.46250977 -2.93254881 4.46294766 -3.15234375 1.42578125 C-2.15234375 0.42578125 -2.15234375 0.42578125 0 0 Z " fill="#060402" transform="translate(283.15234375,306.57421875)"/>
<path d="M0 0 C2.0625 0.4375 2.0625 0.4375 4 1 C4.82975395 3.83398607 5.27197299 5.38999447 4.04711914 8.13720703 C3.54817139 8.83700684 3.04922363 9.53680664 2.53515625 10.2578125 C1.98561279 11.04373779 1.43606934 11.82966309 0.86987305 12.6394043 C0.27343994 13.45965088 -0.32299316 14.27989746 -0.9375 15.125 C-1.53199951 15.96651611 -2.12649902 16.80803223 -2.73901367 17.67504883 C-4.47751509 20.12800288 -6.23550715 22.56570113 -8 25 C-8.88315718 26.23022138 -9.76601439 27.46065822 -10.6484375 28.69140625 C-12.41680232 31.13966584 -14.19755891 33.5767786 -16 36 C-17.32 35.67 -18.64 35.34 -20 35 C-20.76513672 33.43237305 -20.76513672 33.43237305 -21 31 C-19.6818023 28.53427254 -18.34419262 26.36479956 -16.7578125 24.08203125 C-16.31484833 23.42418137 -15.87188416 22.76633148 -15.41549683 22.08854675 C-13.99702964 19.9883191 -12.56124406 17.90060007 -11.125 15.8125 C-10.16423192 14.39464707 -9.20458235 12.97603551 -8.24609375 11.55664062 C-1.2957381 1.2957381 -1.2957381 1.2957381 0 0 Z " fill="#080603" transform="translate(264,306)"/>
</svg>
